<?xml version="1.0" standalone="no"?>
<!DOCTYPE svg PUBLIC "-//W3C//DTD SVG 20010904//EN"
 "http://www.w3.org/TR/2001/REC-SVG-20010904/DTD/svg10.dtd">
<svg version="1.0" xmlns="http://www.w3.org/2000/svg"
 width="200.000000pt" height="200.000000pt" viewBox="0 0 200.000000 200.000000"
 preserveAspectRatio="xMidYMid meet">

<g transform="translate(0.000000,200.000000) scale(0.100000,-0.100000)"
fill="#000000" stroke="none">
<path d="M546 1505 c-14 -14 -16 -43 -16 -192 l0 -175 -35 -41 c-19 -22 -35
-49 -35 -59 0 -10 16 -35 35 -57 l35 -38 0 -158 0 -159 73 -73 73 -73 269 0
c318 0 357 7 435 77 59 53 90 126 90 210 0 50 4 60 35 94 43 48 44 74 3 117
-31 31 -33 38 -39 130 -8 126 -30 171 -142 280 -132 128 -126 126 -473 130
-258 3 -293 1 -308 -13z m589 -30 c74 -19 122 -57 155 -121 20 -40 26 -66 28
-145 4 -95 4 -97 38 -130 19 -18 34 -36 34 -41 0 -4 -16 -23 -35 -42 -32 -33
-35 -40 -35 -95 0 -116 -53 -204 -148 -248 -32 -15 -75 -17 -322 -18 l-285 0
-3 166 -2 166 -30 28 c-38 36 -38 54 0 90 l30 29 0 181 c0 100 3 185 7 188 3
4 119 7 258 7 194 0 264 -4 310 -15z"/>
<path d="M590 1295 c0 -174 -3 -189 -48 -237 -22 -24 -23 -28 -8 -34 11 -4 27
3 47 22 l29 28 0 183 0 183 246 0 c235 0 320 -8 352 -33 7 -5 15 -8 17 -5 3 2
-14 15 -38 29 -41 24 -47 24 -319 27 l-278 3 0 -166z"/>
<path d="M800 1207 c0 -91 1 -94 30 -122 17 -16 30 -36 30 -45 0 -9 -13 -29
-30 -45 -28 -27 -30 -34 -30 -103 l0 -74 120 4 c146 4 162 13 162 99 -1 46 -5
57 -31 81 -17 16 -31 32 -31 36 0 3 13 20 30 37 26 27 29 38 31 96 3 114 -17
129 -177 129 l-104 0 0 -93z"/>
<path d="M1108 1184 c4 -74 4 -76 -29 -110 -26 -27 -30 -37 -21 -46 10 -10 19
-5 45 20 30 31 32 36 32 107 0 53 -4 79 -15 89 -14 14 -15 8 -12 -60z"/>
<path d="M588 815 c2 -89 7 -155 12 -155 11 0 14 268 4 294 -15 39 -19 6 -16
-139z"/>
<path d="M1108 914 c-4 -49 -10 -62 -37 -86 -31 -27 -34 -28 -152 -28 -107 0
-120 -2 -109 -15 10 -12 37 -15 122 -15 165 0 199 21 202 126 2 77 -20 92 -26
18z"/>
</g>
</svg>
