<svg width="608.21" height="266.05" fill="none" xmlns="http://www.w3.org/2000/svg">
  <path fill="#7fc58b" d="M606.32.08c-2.3 1.44-4.587 2.82-6.86 4.14-13.15 7.65-27.08 14.23-41.86 21.21-4.31 2-8.67 4.1-13.08 6.22-18.92 9.09-39.26 19.51-59.8 34-31.93 22.59-57.94 52.46-83.08 81.34-5.26 6-10.7 12.29-16.14 18.4-28 31.48-61.8 66.59-108.79 84.9l-.23.09c-35.87 13.95-70.42 17.9-105.64 12.08-41.31-6.83-82.48-27-129.56-63.33-15.05-11.64-28.62-24.05-41.25-35.88v1.36c12.45 11.67 25.84 23.86 40.64 35.31 47.22 36.48 88.53 56.66 130 63.52a191.093 191.093 0 0 0 31.42 2.61 191.827 191.827 0 0 0 37.26-3.69 222.574 222.574 0 0 0 37.72-11.14c47.2-18.39 81.1-53.6 109.18-85.17 5.44-6.11 10.88-12.36 16.14-18.4 25.11-28.84 51.07-58.67 82.9-81.18 20.48-14.49 40.78-24.89 59.66-34 4.41-2.12 8.77-4.18 13.1-6.22 14.78-7 28.73-13.57 41.91-21.24 2.73-1.59 5.48-3.25 8.25-5z"/>
  <path fill="#7fc58b" d="M465.35.08c-6.07 3.78-12.22 7.83-18.43 12.22-38.32 27.12-66.92 60-94.59 91.75-32.93 37.82-61.37 70.48-99.27 85.3l-.12.05c-24.63 9.6-47.93 12.42-71.24 8.6h-.2c-30.22-5-62.06-21-100.2-50.53-4-3.08-8-6.38-12.38-10.08l-.33-.27c-10.69-9.11-21-18.82-30.95-28.21C27.5 99.35 16.01 88.52 4 78.3c-1.31-1.12-2.64-2.23-4-3.34v1.3c1.11.93 2.23 1.86 3.33 2.8 12 10.2 23.46 21 33.59 30.57 10.13 9.57 20.49 19.32 31.32 28.52 4.36 3.71 8.43 7 12.42 10.11 19 14.71 36.51 26.1 53 34.44 16.49 8.34 32 13.65 47.15 16.2l.32.05h.17l.37.06h.12a124.173 124.173 0 0 0 20 1.61 129.607 129.607 0 0 0 25.44-2.57 156.2 156.2 0 0 0 26.08-7.74l.17-.07.29-.11c38-15 66.4-47.63 99.31-85.43 27.63-31.73 56.2-64.54 94.42-91.59 6.65-4.71 13.24-9 19.75-13z"/>
  <path fill="#7fc58b" d="M528.37.08c-20.16 9.71-42 21-64.14 36.68-35.34 25-62.71 56.44-89.18 86.83l-.12.14c-34.07 39.14-66.26 76.11-111.1 93.59-29.87 11.65-58.4 15-87.23 10.22h-.11c-35.27-5.86-71.35-23.78-113.54-56.39-16.32-12.63-31.31-26.74-45.87-40.45l-.07-.07c-5.56-5.24-11.21-10.56-17-15.82v1.35c5.53 5.07 11 10.18 16.32 15.22l.11.11c14.52 13.67 29.52 27.8 45.88 40.45 42.17 32.6 78.28 50.57 113.6 56.52h.16l.34.05a155.36 155.36 0 0 0 25.47 2.12c20.48 0 41.05-4.11 62.28-12.38 45.07-17.57 77.34-54.63 111.5-93.87l.12-.14c26.43-30.35 53.76-61.74 89-86.68 22.73-16.08 45.24-27.6 65.88-37.49z"/>
  <path fill="#7fc58b" d="M404.75.08c-31.31 25.84-56.47 54.73-79.16 80.79-14.86 17.08-28.9 33.2-42.84 46.36-15.47 14.62-29 23.9-42.67 29.22-18.88 7.35-35.65 9.46-52.8 6.62-24.19-4-51-17.85-84.3-43.6-3.46-2.68-7.07-5.62-11-9-10-8.5-20.12-18-29.92-27.27l-.28-.26c-11-10.35-22.33-21-34.82-31.65-1.79-1.53-3.92-3.32-6.12-5.12-7.07-5.81-13.93-11.09-20.77-16v1.25c6.31 4.52 12.64 9.38 19.14 14.69l5.54 5.27 1.23 1c12.46 10.59 23.8 21.28 34.77 31.6l.27.27c9.82 9.24 20 18.79 30 27.31 4 3.39 7.62 6.35 11.1 9 33.52 25.91 60.52 39.86 85 43.9a91.003 91.003 0 0 0 14.87 1.23c12.43 0 25-2.6 38.71-7.93 30.19-11.77 56.1-41.53 86.12-76 23-26.39 48.49-55.71 80.38-81.76z"/>
</svg>
