<svg width="1865" height="436" opacity=".5" fill="none" xmlns="http://www.w3.org/2000/svg">
  <path stroke="#fff" d="M1 386.5C64.833 282.167 249.1 99 475.5 201L629 221.5C683 307 863.3 467.2 1152.5 424c289.2-43.2 392-75.5 450-165 31-56 56-152.5-127.5-258.5M1617.47 77.937c.76-7.225 2.76-10.381 8.97-14.151.99-.602.65-2.116-.5-2.237zm0 0c-.12 1.159-1.63 1.498-2.24.502-3.77-6.211-6.92-8.211-14.15-8.97m16.39 8.468-16.39-8.468m0 0c-1.16-.12-1.5-1.634-.5-2.237zm16.22-9.938c2.26 1.43 4.94 2.132 8.59 2.515.68.071.88.96.29 1.312-3.13 1.903-5.26 3.683-6.69 5.94-1.43 2.257-2.13 4.94-2.52 8.587a.706.706 0 0 1-1.31.295v-.001c-1.9-3.134-3.68-5.261-5.94-6.692-2.26-1.43-4.94-2.132-8.59-2.515a.706.706 0 0 1-.29-1.312c3.13-1.903 5.26-3.683 6.69-5.94 1.43-2.257 2.14-4.941 2.52-8.587.07-.683.96-.881 1.31-.295 1.9 3.135 3.68 5.262 5.94 6.693z" />
  <path stroke="#fff" d="M1561.96 194.745v.001c-.34 1.173-1.96 1.239-2.4.098v-.001c-1.91-4.986-3.9-8.47-6.73-11.081-2.83-2.611-6.47-4.308-11.59-5.806-1.18-.341-1.24-1.963-.1-2.398v-.001c4.99-1.909 8.47-3.896 11.08-6.728 2.62-2.833 4.31-6.467 5.81-11.591v-.001c.34-1.173 1.96-1.239 2.4-.098v.001c1.91 4.986 3.9 8.47 6.73 11.081 2.83 2.611 6.47 4.308 11.59 5.806 1.17.341 1.23 1.964.1 2.399-4.99 1.909-8.47 3.896-11.08 6.728-2.61 2.833-4.31 6.467-5.81 11.591zm17.07-17.852c-9.91 3.795-13.61 7.808-16.59 17.993-.47 1.633-2.74 1.725-3.35.136-3.79-9.91-7.81-13.608-17.99-16.586z" />
</svg>
