<svg width="571.59" height="267.65" fill="none" xmlns="http://www.w3.org/2000/svg">
  <path fill="#7fc58b" d="M569.95 66.14c-47.21-36.48-88.52-56.67-130-63.53A191.544 191.544 0 0 0 408.56 0c-24.81 0-49.59 4.92-75 14.83-47.2 18.4-81.11 53.61-109.18 85.18-5.36 6-10.75 12.2-16 18.19l-.18.21c-25.09 28.83-51 58.64-82.9 81.18-20.45 14.47-40.76 24.87-59.66 34-4.41 2.12-8.78 4.18-13.09 6.22-14.77 7-28.72 13.56-41.91 21.24-3.51 2.05-7.07 4.22-10.64 6.56h1.83c3.13-2 6.24-3.897 9.31-5.69 13.15-7.66 27.08-14.24 41.83-21.2 4.32-2.04 8.69-4.117 13.11-6.23 18.94-9.11 39.29-19.53 59.8-34 32-22.61 57.94-52.47 83.08-81.34l.18-.21c5.21-6 10.61-12.18 15.95-18.19 28-31.48 61.81-66.59 108.8-84.9l.3-.12c35.84-13.93 70.37-17.87 105.57-12 41.31 6.83 82.48 27 129.55 63.33.75.58 1.5 1.16 2.24 1.76v-1.28z"/>
  <path fill="#7fc58b" d="M542.35 128.03c-4.42-3.76-8.48-7.07-12.42-10.11-19-14.72-36.5-26.1-53-34.44-16.5-8.34-32-13.64-47.15-16.2l-.38-.07h-.11a124.815 124.815 0 0 0-20.47-1.69c-16.82 0-33.82 3.42-51.5 10.31l-.15.06-.32.12c-38 15-66.39 47.64-99.31 85.44-27.62 31.72-56.18 64.53-94.42 91.59-7.52 5.32-15 10.15-22.29 14.59h1.92c6.89-4.21 13.89-8.78 20.95-13.78 38.34-27.12 66.94-60 94.6-91.75 32.92-37.81 61.37-70.47 99.25-85.29h.13c24.7-9.63 48.07-12.43 71.45-8.57h.09c30.19 5 62 21.06 100.1 50.51 3.91 3 7.93 6.3 12.32 10l.07.06c10.33 8.78 20.26 18.1 29.87 27.15v-1.36c-9.41-8.94-19.12-18.03-29.23-26.57z"/>
  <path fill="#7fc58b" d="M548.28 94.17c-21.08-16.3-40.65-28.94-59.36-38.24s-36.57-15.3-54.24-18.27h-.49c-29-4.8-57.71-1.45-87.75 10.26-45.07 17.57-77.34 54.63-111.52 93.89l-.1.12c-26.42 30.34-53.75 61.72-89 86.67-23.92 16.93-47.59 28.8-69.1 39.05h2.3c21-10.05 44.08-21.75 67.38-38.23 35.36-25 62.72-56.45 89.2-86.85l.1-.12c34.08-39.15 66.27-76.12 111.11-93.6 29.87-11.64 58.4-15 87.23-10.21 35.31 5.84 71.42 23.77 113.64 56.41 8.27 6.4 16.21 13.18 23.91 20.09v-1.33c-7.52-6.78-15.24-13.4-23.31-19.64z"/>
  <path fill="#7fc58b" d="m549.91 182.03-.38-.36c-4.89-4.61-9.86-9.29-14.86-13.88-5-4.59-10-9.09-15-13.34-3.94-3.36-7.57-6.31-11.1-9-33.51-25.9-60.5-39.85-85-43.89-17.42-2.88-34.45-.76-53.59 6.7-30.2 11.78-56.1 41.53-86.08 76l-.07.07c-23.41 26.9-49.48 56.83-82.23 83.27h2.37c32.2-26.24 57.88-55.75 81-82.28l.19-.21c14.82-17 28.82-33.09 42.71-46.21 15.48-14.62 29-23.9 42.68-29.22 18.88-7.35 35.65-9.46 52.8-6.62 24.18 4 51 17.85 84.29 43.6 3.48 2.69 7.09 5.63 11.05 9 10 8.48 20.09 18 29.92 27.27l.4.38c7.28 6.86 14.73 13.87 22.57 20.91v-2c-7.52-6.83-14.67-13.57-21.67-20.19z"/>
</svg>
